<svg width="377" height="251" viewBox="0 0 377 251" fill="none" xmlns="http://www.w3.org/2000/svg">
<path d="M57.5483 236.085L22.2097 244.658L20.3972 237.186L34.9778 233.649L31.2984 218.482L16.7178 222.019L14.9094 214.565L50.2481 205.992L52.0564 213.446L37.4585 216.987L41.1379 232.155L55.7358 228.614L57.5483 236.085Z" fill="black"/>
<path d="M33.1557 161.187C37.1125 161.447 40.4294 162.419 43.1063 164.102C45.784 165.773 47.7703 167.944 49.0653 170.616C50.3493 173.275 50.8859 176.204 50.675 179.405C50.4626 182.63 49.5397 185.475 47.9062 187.942C46.2728 190.409 44.0192 192.295 41.1454 193.6C38.2717 194.906 34.8623 195.428 30.9173 195.169C26.9604 194.908 23.6431 193.942 20.9655 192.271C18.2878 190.6 16.3069 188.435 15.023 185.776C13.7272 183.117 13.1855 180.174 13.3979 176.95C13.6087 173.749 14.5309 170.915 16.1643 168.449C17.7868 165.969 20.0348 164.077 22.9086 162.772C25.7831 161.454 29.1988 160.926 33.1557 161.187ZM32.6433 168.965C30.0802 168.796 27.8934 169.037 26.0829 169.689C24.2732 170.329 22.8681 171.31 21.8676 172.632C20.8671 173.954 20.3057 175.542 20.1836 177.397C20.0614 179.251 20.4096 180.899 21.2281 182.341C22.0465 183.783 23.3104 184.946 25.0198 185.83C26.7299 186.701 28.8665 187.222 31.4296 187.391C33.9927 187.559 36.1791 187.324 37.9888 186.684C39.7993 186.032 41.2048 185.045 42.2053 183.723C43.2058 182.401 43.7672 180.813 43.8893 178.958C44.0115 177.104 43.6633 175.456 42.8449 174.014C42.0264 172.572 40.7621 171.415 39.052 170.543C37.3426 169.66 35.2064 169.133 32.6433 168.965Z" fill="black"/>
<path d="M22.005 133.497L50.9423 135.28L51.0641 134.966L28.4823 116.775L31.5606 108.827L60.9417 133.651L57.3632 142.889L18.9203 141.461L22.005 133.497Z" fill="black"/>
<path d="M70.1228 114.921L41.0044 93.1395L55.6814 73.5187L60.7572 77.3155L50.6854 90.7799L57.6238 95.9701L66.9405 83.5151L72.0163 87.312L62.6996 99.7669L69.6522 104.968L79.7665 91.4464L84.8424 95.2433L70.1228 114.921Z" fill="black"/>
<path d="M91.6528 88.0168L68.9828 59.5847L80.2001 50.6407C82.3473 48.9286 84.4861 47.8516 86.6165 47.4095C88.7487 46.9508 90.77 47.1029 92.6802 47.8658C94.5924 48.6121 96.2975 49.9246 97.7955 51.8034C99.301 53.6915 100.189 55.6405 100.459 57.6504C100.722 59.6511 100.369 61.6285 99.3986 63.5828C98.4378 65.5298 96.8653 67.374 94.6811 69.1156L87.1705 75.1041L83.3183 70.2729L89.8572 65.0592C91.0048 64.1441 91.8327 63.2267 92.3407 62.3069C92.8487 61.3871 93.0369 60.4649 92.9053 59.5404C92.783 58.6085 92.3491 57.6751 91.6038 56.7403C90.8511 55.7963 90.0267 55.1516 89.1307 54.8063C88.2439 54.4536 87.2836 54.417 86.2497 54.6963C85.2177 54.959 84.1233 55.5515 82.9664 56.474L78.9126 59.7062L97.6641 83.2238L91.6528 88.0168ZM96.6906 62.8353L114.074 70.1398L107.438 75.4309L90.2073 68.0047L96.6906 62.8353Z" fill="black"/>
<path d="M135.718 59.3653L124.841 24.6665L147.816 17.4648L149.712 23.5133L134.073 28.4154L136.665 36.6835L150.779 32.2594L152.675 38.308L138.561 42.732L143.054 57.0656L135.718 59.3653Z" fill="black"/>
<path d="M200.7 30.901C200.81 34.8649 200.152 38.258 198.726 41.0801C197.312 43.902 195.335 46.0821 192.796 47.6206C190.269 49.147 187.402 49.9544 184.195 50.043C180.965 50.1322 178.045 49.4787 175.437 48.0824C172.829 46.686 170.741 44.6181 169.173 41.8787C167.606 39.1392 166.767 35.7934 166.658 31.8413C166.548 27.8774 167.201 24.4845 168.615 21.6627C170.029 18.8408 172 16.6667 174.527 15.1404C177.054 13.6022 179.933 12.7885 183.163 12.6993C186.37 12.6107 189.277 13.2646 191.886 14.6609C194.505 16.0451 196.599 18.1069 198.167 20.8464C199.746 23.5855 200.591 26.9371 200.7 30.901ZM192.909 31.1162C192.838 28.5485 192.393 26.3938 191.575 24.652C190.769 22.9098 189.662 21.6023 188.252 20.7295C186.842 19.8566 185.209 19.4458 183.351 19.4971C181.493 19.5484 179.885 20.0488 178.526 20.9981C177.166 21.9475 176.127 23.3143 175.406 25.0986C174.698 26.8826 174.379 29.0584 174.45 31.6261C174.521 34.1938 174.959 36.3487 175.765 38.0908C176.583 39.8326 177.697 41.14 179.106 42.0128C180.516 42.8857 182.149 43.2965 184.007 43.2452C185.865 43.1939 187.473 42.6935 188.833 41.7442C190.192 40.7948 191.226 39.4282 191.934 37.6442C192.655 35.8599 192.979 33.6839 192.909 31.1162Z" fill="black"/>
<path d="M211.032 50.6829L220.342 15.5311L234.21 19.204C236.865 19.9071 239.005 20.9819 240.63 22.4287C242.269 23.867 243.352 25.5804 243.879 27.5688C244.42 29.5489 244.383 31.7003 243.767 34.0232C243.149 36.3575 242.114 38.2323 240.662 39.6477C239.212 41.0517 237.414 41.9469 235.267 42.3333C233.131 42.7228 230.712 42.5599 228.012 41.8448L218.726 39.3856L220.308 33.4125L228.392 35.5535C229.811 35.9293 231.041 36.0469 232.083 35.9063C233.124 35.7658 233.977 35.367 234.64 34.7102C235.316 34.0563 235.806 33.1515 236.112 31.9958C236.421 30.8287 236.447 29.7825 236.19 28.8573C235.945 27.9351 235.402 27.1422 234.561 26.4788C233.735 25.8069 232.607 25.2816 231.176 24.9028L226.164 23.5754L218.464 52.6512L211.032 50.6829ZM234.252 39.7136L238.752 58.0241L230.548 55.8513L226.237 37.5908L234.252 39.7136Z" fill="black"/>
<path d="M260.331 68.8329L282.007 39.6354L293.526 48.187C295.741 49.8309 297.313 51.6545 298.244 53.6575C299.182 55.651 299.506 57.6973 299.215 59.7963C298.941 61.8928 298.085 63.9105 296.645 65.8494C295.206 67.7883 293.518 69.1887 291.581 70.0505C289.644 70.9122 287.575 71.1674 285.373 70.816C283.182 70.4716 280.965 69.4668 278.721 67.8017L271.379 62.3511L275.052 57.4041L281.396 62.1138C282.584 62.9958 283.715 63.5181 284.788 63.681C285.878 63.8414 286.884 63.6967 287.808 63.2471C288.748 62.7951 289.574 62.0891 290.287 61.1291C291.007 60.1597 291.44 59.1691 291.586 58.1575C291.749 57.1435 291.589 56.1475 291.106 55.1698C290.63 54.1825 289.794 53.2444 288.596 52.3554L284.433 49.2649L266.505 73.4156L260.331 68.8329Z" fill="black"/>
<path d="M288.917 91.3109L317.808 69.2291L322.477 75.3374L310.557 84.4483L320.034 96.8484L331.955 87.7375L336.613 93.8318L307.721 115.914L303.063 109.819L314.998 100.698L305.52 88.2976L293.586 97.4193L288.917 91.3109Z" fill="black"/>
<path d="M341.414 150.037C337.688 151.393 334.26 151.839 331.132 151.378C328.008 150.927 325.316 149.74 323.054 147.816C320.808 145.9 319.137 143.434 318.04 140.42C316.936 137.383 316.634 134.406 317.136 131.491C317.637 128.575 318.94 125.941 321.044 123.589C323.149 121.236 326.059 119.384 329.774 118.033C333.501 116.678 336.926 116.225 340.05 116.676C343.174 117.127 345.859 118.311 348.105 120.227C350.363 122.139 352.044 124.614 353.148 127.651C354.245 130.665 354.542 133.631 354.041 136.546C353.554 139.469 352.259 142.107 350.155 144.459C348.054 146.823 345.141 148.682 341.414 150.037ZM338.75 142.712C341.164 141.834 343.068 140.732 344.463 139.406C345.861 138.092 346.752 136.628 347.135 135.015C347.519 133.401 347.393 131.722 346.757 129.975C346.122 128.229 345.14 126.86 343.81 125.87C342.48 124.88 340.855 124.325 338.934 124.205C337.018 124.096 334.852 124.48 332.438 125.358C330.024 126.236 328.118 127.333 326.72 128.647C325.325 129.973 324.436 131.443 324.053 133.056C323.67 134.669 323.796 136.349 324.431 138.095C325.066 139.842 326.049 141.21 327.379 142.2C328.709 143.19 330.332 143.74 332.248 143.849C334.169 143.969 336.336 143.59 338.75 142.712Z" fill="black"/>
<path d="M355.843 162.913L362.171 162.54L363.928 192.353L357.6 192.726L356.945 181.612L326.972 183.379L326.525 175.793L356.498 174.026L355.843 162.913Z" fill="black"/>
<path d="M337.225 240.062C333.365 239.154 330.253 237.649 327.89 235.549C325.524 233.46 323.922 230.992 323.084 228.143C322.255 225.31 322.208 222.331 322.942 219.209C323.683 216.063 325.061 213.408 327.078 211.244C329.095 209.08 331.629 207.59 334.678 206.776C337.727 205.961 341.176 206.006 345.025 206.912C348.885 207.82 351.998 209.319 354.364 211.408C356.73 213.497 358.328 215.958 359.157 218.792C359.997 221.628 360.048 224.619 359.307 227.765C358.573 230.888 357.197 233.531 355.18 235.695C353.171 237.874 350.643 239.37 347.593 240.185C344.541 241.011 341.085 240.97 337.225 240.062ZM339.01 232.475C341.511 233.063 343.707 233.184 345.6 232.839C347.491 232.506 349.038 231.77 350.243 230.63C351.447 229.491 352.262 228.017 352.688 226.208C353.113 224.399 353.041 222.716 352.471 221.159C351.901 219.602 350.846 218.247 349.305 217.094C347.762 215.953 345.74 215.088 343.24 214.499C340.739 213.911 338.544 213.784 336.654 214.117C334.76 214.462 333.212 215.204 332.007 216.344C330.803 217.483 329.988 218.957 329.562 220.766C329.136 222.575 329.209 224.258 329.779 225.815C330.349 227.372 331.405 228.721 332.949 229.863C334.489 231.016 336.51 231.886 339.01 232.475Z" fill="black"/>
</svg>
